HIERARCHY
ROOT Pelvis
{
	OFFSET 0.000000 0.000000 0.000000
	CHANNELS 6 Xposition Yposition Zposition Zrotation Yrotation Xrotation 
	JOINT Left_hip
	{
		OFFSET 0.068973 -0.091024 -0.007589
		CHANNELS 3 Zrotation Yrotation Xrotation
		JOINT Left_knee
		{
			OFFSET 0.036482 -0.391037 -0.003979
			CHANNELS 3 Zrotation Yrotation Xrotation
			JOINT Left_ankle
			{
				OFFSET -0.012239 -0.415469 -0.043440
				CHANNELS 3 Zrotation Yrotation Xrotation
				JOINT Left_foot
				{
					OFFSET 0.023806 -0.058558 0.118702
					CHANNELS 3 Zrotation Yrotation Xrotation
					End Site
					{
						OFFSET 0.000000 0.000000 0.000000
					}
				}
			}
		}
	}
	JOINT Right_hip
	{
		OFFSET -0.066552 -0.090468 -0.003847
		CHANNELS 3 Zrotation Yrotation Xrotation
		JOINT Right_knee
		{
			OFFSET -0.042435 -0.398340 -0.006400
			CHANNELS 3 Zrotation Yrotation Xrotation
			JOINT Right_ankle
			{
				OFFSET 0.014931 -0.415421 -0.041327
				CHANNELS 3 Zrotation Yrotation Xrotation
				JOINT Right_foot
				{
					OFFSET -0.021472 -0.049410 0.121889
					CHANNELS 3 Zrotation Yrotation Xrotation
					End Site
					{
						OFFSET 0.000000 0.000000 0.000000
					}
				}
			}
		}
	}
	JOINT Spine1
	{
		OFFSET -0.002904 0.105700 -0.022855
		CHANNELS 3 Zrotation Yrotation Xrotation
		JOINT Spine2
		{
			OFFSET 0.004179 0.132554 -0.002501
			CHANNELS 3 Zrotation Yrotation Xrotation
			JOINT Spine3
			{
				OFFSET 0.001987 0.049603 0.025988
				CHANNELS 3 Zrotation Yrotation Xrotation
				JOINT Neck
				{
					OFFSET -0.003935 0.211336 -0.045638
					CHANNELS 3 Zrotation Yrotation Xrotation
					JOINT Head
					{
						OFFSET 0.003906 0.065991 0.051018
						CHANNELS 3 Zrotation Yrotation Xrotation
						End Site
						{
							OFFSET 0.000000 0.000000 0.000000
						}
					}
				}
				JOINT Left_collar
				{
					OFFSET 0.072882 0.117751 -0.036270
					CHANNELS 3 Zrotation Yrotation Xrotation
					JOINT Left_shoulder
					{
						OFFSET 0.082118 0.032630 -0.005771
						CHANNELS 3 Zrotation Yrotation Xrotation
						JOINT Left_elbow
						{
							OFFSET 0.263305 -0.015144 -0.028095
							CHANNELS 3 Zrotation Yrotation Xrotation
							JOINT Left_wrist
							{
								OFFSET 0.250741 0.010115 -0.000759
								CHANNELS 3 Zrotation Yrotation Xrotation
								JOINT Left_palm
								{
									OFFSET 0.080683 -0.009989 -0.013613
									CHANNELS 3 Zrotation Yrotation Xrotation
									End Site
									{
										OFFSET 0.000000 0.000000 0.000000
									}
								}
							}
						}
					}
				}
				JOINT Right_collar
				{
					OFFSET -0.074811 0.116132 -0.040385
					CHANNELS 3 Zrotation Yrotation Xrotation
					JOINT Right_shoulder
					{
						OFFSET -0.085089 0.032943 -0.007484
						CHANNELS 3 Zrotation Yrotation Xrotation
						JOINT Right_elbow
						{
							OFFSET -0.254763 -0.014219 -0.020321
							CHANNELS 3 Zrotation Yrotation Xrotation
							JOINT Right_wrist
							{
								OFFSET -0.256597 0.009233 -0.005063
								CHANNELS 3 Zrotation Yrotation Xrotation
								JOINT Right_palm
								{
									OFFSET -0.080528 -0.007219 -0.010379
									CHANNELS 3 Zrotation Yrotation Xrotation
									End Site
									{
										OFFSET 0.000000 0.000000 0.000000
									}
								}
							}
						}
					}
				}
			}
		}
	}
}
MOTION
Frames: 5
Frame Time: 0.100000
-0.241139 -0.015791 0.051175 167.774285 45.299884 -36.558924 6.246416 9.824364 25.340614 -1.819621 -3.252751 1.056872 -4.611753 14.562335 -5.615090 10.413119 6.844861 -6.590717 -11.790925 -3.027121 9.649063 -0.607777 6.976524 22.224635 11.352865 -11.438091 4.787237 -10.787729 1.795842 -5.789542 3.809404 -2.021768 7.481990 2.410728 -3.626748 16.799414 -0.016782 -2.469416 3.021690 -2.767533 -23.460465 14.234342 -1.854288 -19.115762 6.128692 -19.858805 -2.026642 9.643861 -53.095317 1.803077 14.299996 -12.945956 -51.786154 34.389964 -1.198411 -2.833399 -7.920031 -15.150227 -5.455319 -19.256044 12.509681 9.929725 0.050648 29.984191 10.225352 -3.753513 -39.455960 41.247711 -44.910401 -9.649911 0.389889 -6.969908 16.569178 9.257815 -14.742301 
-0.256183 -0.017891 0.038899 163.841680 49.901951 -37.525695 6.111402 9.069928 27.598176 -1.883927 -6.540136 -8.415639 -6.254999 13.563550 -2.324318 12.321807 5.660735 -7.153757 -9.647829 -2.202035 3.843994 -0.810054 3.243968 29.463392 8.907929 -14.965634 1.145518 -10.645621 3.445754 -4.287345 1.845785 -3.920972 4.802256 2.857394 -4.376642 14.597835 -0.239210 -4.105128 2.254129 -1.407951 -21.889372 13.115719 -2.983675 -20.657072 8.429932 -20.010203 -0.697234 10.577100 -51.248568 2.051971 15.430413 -15.459811 -50.310996 36.845696 -3.050914 -2.607567 -7.190821 -14.117355 -5.046548 -20.979204 15.165963 7.262148 -0.269186 34.097526 8.288735 -0.002099 -35.395630 40.711776 -40.947378 -7.228406 -0.262575 -11.241293 14.932975 8.015245 -13.394087 
-0.268438 -0.014014 0.034443 161.325829 53.897857 -38.220344 5.283715 7.873844 27.525606 -2.169428 -9.175233 -11.140035 -6.219762 13.159476 -2.271951 11.443445 4.140929 -6.570540 -6.974439 -0.535851 2.497538 -0.020349 4.664677 26.971913 7.898420 -13.755077 -3.818443 -9.823107 4.036933 -1.804763 0.286925 -4.476930 3.110535 2.396650 -4.440282 12.842575 -0.692222 -4.587024 1.827881 -1.440946 -20.937968 10.963247 -3.258239 -22.283794 7.952463 -20.262836 1.034118 10.287620 -49.656352 3.114796 16.461239 -16.405734 -50.245253 39.044392 -3.458444 -2.720575 -6.014653 -13.393397 -4.316336 -20.423011 17.479756 5.695094 -0.003769 35.394885 6.051177 2.126088 -25.324997 37.107059 -30.082762 -5.528869 -0.510181 -10.250990 14.171768 7.387877 -12.506104 
-0.283222 -0.009945 0.031782 162.072942 55.855795 -39.575578 3.504942 7.480150 29.559713 -2.415394 -10.410481 -9.744002 -4.499071 13.883723 -3.008908 7.737933 2.917926 -5.679668 -4.947132 -0.180343 5.493920 -0.424384 7.066058 22.488398 6.433056 -12.405385 -6.077413 -7.712147 4.639775 -0.545098 0.595161 -3.957541 3.060928 0.223158 -2.754040 13.980532 -1.900139 -3.052755 2.253815 -4.272438 -21.796301 11.798212 -2.611592 -22.638922 6.478373 -20.832778 0.508459 9.766449 -48.192018 3.486417 16.422812 -13.654646 -51.111440 38.516950 -0.452032 -3.206629 -4.148669 -10.624736 -2.835450 -15.971820 18.505674 9.293384 2.576578 34.145622 5.714629 3.201490 -10.042646 26.430686 -9.676432 -4.550617 -0.637278 4.093578 11.034753 6.723661 -10.693923 
-0.295587 -0.009221 0.029853 159.680840 60.418180 -43.024614 1.716594 5.989748 29.653295 -2.418205 -13.148248 -6.728642 -2.214603 14.632297 -3.295924 4.404258 3.292700 -5.878913 -3.002855 0.363189 7.201850 0.472969 10.536036 23.639562 5.594599 -9.696522 -7.138453 -5.180159 4.422602 -1.466228 1.147059 -2.463610 3.364314 -1.122164 -0.608231 15.278848 -2.549947 -0.693550 2.925668 -2.949522 -25.432740 13.627706 3.847971 -24.880596 3.130987 -20.966519 -1.470865 8.748101 -46.478537 1.911844 16.497552 -12.727810 -51.641121 37.486010 0.456171 -4.446285 -0.914759 -6.790662 -0.949476 -10.626377 17.222739 12.963771 6.599409 34.999091 1.472822 9.448527 5.157144 26.331564 20.259858 0.997802 -0.262006 17.068636 5.473073 5.936646 -7.522888 
